<svg version="1.1" id="Layer_1" xmlns="http://www.w3.org/2000/svg" xmlns:xlink="http://www.w3.org/1999/xlink" x="0px" y="0px"
	 width="100%" viewBox="0 0 512 512" enable-background="new 0 0 512 512" xml:space="preserve">
<path fill="#FFFFFF" opacity="1.000000" stroke="none" 
	d="
M190.000000,417.000275 
	C173.341125,416.980713 157.177795,417.189880 141.024673,416.874817 
	C126.040459,416.582550 114.822853,409.163788 105.863037,397.478119 
	C99.101074,388.658966 96.916779,378.830933 96.934830,367.958008 
	C97.058456,293.492188 97.094002,219.025864 96.928741,144.560211 
	C96.890762,127.446739 104.281662,114.637360 117.746651,104.884102 
	C125.146461,99.524109 133.502975,96.961494 142.697281,96.981499 
	C169.185074,97.039131 195.673065,97.000671 222.160980,96.999954 
	C222.956177,96.999931 223.751373,96.999954 224.772125,96.999954 
	C224.772125,113.069244 224.772125,128.802719 224.772125,144.925491 
	C198.275375,144.925491 171.876297,144.925491 145.240295,144.925491 
	C145.240295,219.694504 145.240295,294.075592 145.240295,368.845337 
	C171.644913,368.845337 198.043930,368.845337 224.720520,368.845337 
	C224.720520,384.963959 224.720520,400.698151 224.720520,417.000275 
	C213.354919,417.000275 201.927460,417.000275 190.000000,417.000275 
z"/>
<path fill="#FBFBFB" opacity="1.000000" stroke="none" 
	d="
M314.441559,200.558411 
	C311.265930,197.342773 308.469971,194.232422 305.373077,191.457977 
	C302.938568,189.276947 302.901703,187.752701 305.311981,185.437836 
	C312.040314,178.975800 318.537781,172.273346 326.042694,164.746872 
	C356.090332,195.645401 386.064301,226.468170 415.662415,256.904449 
	C385.774658,286.791992 355.299652,317.266785 324.614807,347.951416 
	C318.782410,342.059296 312.361969,335.302521 305.616272,328.887787 
	C302.807037,326.216339 303.171539,324.679352 305.755402,322.135498 
	C320.362732,307.754089 334.782104,293.181976 349.315247,278.724823 
	C350.930573,277.117950 352.860779,275.827606 354.644989,274.390503 
	C354.401611,273.978973 354.158264,273.567474 353.914886,273.155945 
	C303.553589,273.155945 253.192276,273.155945 202.571991,273.155945 
	C202.571991,262.248444 202.571991,251.843338 202.571991,241.155136 
	C253.042679,241.155136 303.322113,241.155136 355.168152,241.155136 
	C341.063904,227.096207 327.877716,213.952347 314.441559,200.558411 
z"/>
</svg>